<svg width="512" height="512" viewBox="0 0 512 512" fill="none" xmlns="http://www.w3.org/2000/svg">
<g clip-path="url(#clip0_0_1)">
<rect width="512" height="512" rx="102" fill="#FFD447"/>
<g filter="url(#filter0_d_0_1)">
<line y1="124.5" x2="512.004" y2="124.5" stroke="black" stroke-width="3"/>
<line x1="-0.00048828" y1="151.75" x2="512" y2="151.75" stroke="black" stroke-width="1.5"/>
<line x1="-0.00048828" y1="172.75" x2="512" y2="172.75" stroke="black" stroke-width="1.5"/>
<line x1="-0.00048828" y1="193.75" x2="512" y2="193.75" stroke="black" stroke-width="1.5"/>
<line x1="-0.00048828" y1="214.75" x2="512" y2="214.75" stroke="black" stroke-width="1.5"/>
<line x1="-0.00048828" y1="235.75" x2="512" y2="235.75" stroke="black" stroke-width="1.5"/>
<line x1="-0.00048828" y1="256.75" x2="512" y2="256.75" stroke="black" stroke-width="1.5"/>
<line x1="-0.00048828" y1="277.75" x2="512" y2="277.75" stroke="black" stroke-width="1.5"/>
<line x1="-0.00048828" y1="298.75" x2="512" y2="298.75" stroke="black" stroke-width="1.5"/>
<line x1="-0.00048828" y1="319.75" x2="512" y2="319.75" stroke="black" stroke-width="1.5"/>
<line x1="-0.00048828" y1="340.75" x2="512" y2="340.75" stroke="black" stroke-width="1.5"/>
<line x1="-0.00048828" y1="361.75" x2="512" y2="361.75" stroke="black" stroke-width="1.5"/>
<line x1="-0.00048828" y1="382.75" x2="512" y2="382.75" stroke="black" stroke-width="1.5"/>
<line x1="-0.00048828" y1="403.75" x2="512" y2="403.75" stroke="black" stroke-width="1.5"/>
<line x1="-0.00048828" y1="424.75" x2="512" y2="424.75" stroke="black" stroke-width="1.5"/>
<line x1="-0.00048828" y1="445.75" x2="512" y2="445.75" stroke="black" stroke-width="1.5"/>
<line x1="-0.00048828" y1="464.75" x2="512" y2="464.75" stroke="black" stroke-width="1.5"/>
<line x1="-0.00048828" y1="483.75" x2="512" y2="483.75" stroke="black" stroke-width="1.5"/>
<path d="M357.409 406.352V394.182H414.75V406.352H393.375V464H378.784V406.352H357.409ZM482.591 394.182V464H469.841L439.466 420.057H438.955V464H424.193V394.182H437.148L467.284 438.091H467.898V394.182H482.591Z" fill="black"/>
</g>
<g filter="url(#filter1_g_0_1)">
<line y1="81.5" x2="512" y2="81.5" stroke="#FFDD6C" stroke-width="5"/>
</g>
</g>
<defs>
<filter id="filter0_d_0_1" x="-0.00048828" y="123" width="521.004" height="369.5" filterUnits="userSpaceOnUse" color-interpolation-filters="sRGB">
<feFlood flood-opacity="0" result="BackgroundImageFix"/>
<feColorMatrix in="SourceAlpha" type="matrix" values="0 0 0 0 0 0 0 0 0 0 0 0 0 0 0 0 0 0 127 0" result="hardAlpha"/>
<feOffset dx="5" dy="4"/>
<feGaussianBlur stdDeviation="2"/>
<feComposite in2="hardAlpha" operator="out"/>
<feColorMatrix type="matrix" values="0 0 0 0 0 0 0 0 0 0 0 0 0 0 0 0 0 0 0.25 0"/>
<feBlend mode="normal" in2="BackgroundImageFix" result="effect1_dropShadow_0_1"/>
<feBlend mode="normal" in="SourceGraphic" in2="effect1_dropShadow_0_1" result="shape"/>
</filter>
<filter id="filter1_g_0_1" x="-10" y="69" width="532" height="25" filterUnits="userSpaceOnUse" color-interpolation-filters="sRGB">
<feFlood flood-opacity="0" result="BackgroundImageFix"/>
<feBlend mode="normal" in="SourceGraphic" in2="BackgroundImageFix" result="shape"/>
<feTurbulence type="fractalNoise" baseFrequency="1 1" numOctaves="3" seed="4999" />
<feDisplacementMap in="shape" scale="20" xChannelSelector="R" yChannelSelector="G" result="displacedImage" width="100%" height="100%" />
<feMerge result="effect1_texture_0_1">
<feMergeNode in="displacedImage"/>
</feMerge>
</filter>
<clipPath id="clip0_0_1">
<rect width="512" height="512" rx="102" fill="white"/>
</clipPath>
</defs>
</svg>
